<svg width="25" height="24" viewBox="0 0 25 24" fill="none" xmlns="http://www.w3.org/2000/svg">
<g clip-path="url(#clip0_39_1267)">
<path d="M23.4008 19C23.4008 19.5304 23.19 20.0391 22.815 20.4142C22.4399 20.7893 21.9312 21 21.4008 21H3.40076C2.87032 21 2.36162 20.7893 1.98654 20.4142C1.61147 20.0391 1.40076 19.5304 1.40076 19V8C1.40076 7.46957 1.61147 6.96086 1.98654 6.58579C2.36162 6.21071 2.87032 6 3.40076 6H7.40076L9.40076 3H15.4008L17.4008 6H21.4008C21.9312 6 22.4399 6.21071 22.815 6.58579C23.19 6.96086 23.4008 7.46957 23.4008 8V19Z" stroke="#D2006F" stroke-width="2" stroke-linecap="round" stroke-linejoin="round"/>
<path d="M12.4008 17C14.6099 17 16.4008 15.2091 16.4008 13C16.4008 10.7909 14.6099 9 12.4008 9C10.1916 9 8.40076 10.7909 8.40076 13C8.40076 15.2091 10.1916 17 12.4008 17Z" stroke="#D2006F" stroke-width="2" stroke-linecap="round" stroke-linejoin="round"/>
</g>
<defs>
<clipPath id="clip0_39_1267">
<rect width="24" height="24" fill="white" transform="translate(0.400757)"/>
</clipPath>
</defs>
</svg>
